<svg xmlns="http://www.w3.org/2000/svg" width="20px" height="20px"  fill="none" viewBox="0 0 24 24" focusable="false" aria-hidden="true"><path fill="currentColor" d="M9.994 20.252h-3.999c-1.575 0-2.25-.675-2.25-2.25v-12c0-1.575.675-2.25 2.25-2.25h5.25v2.25a3.383 3.383 0 0 0 3.75 3.75h2.25v1.251c0 .413.338.75.75.75.413 0 .75-.337.75-.75v-2.001c0-.197-.08-.39-.22-.53l-6-6a.75.75 0 0 0-.53-.22h-6a3.383 3.383 0 0 0-3.75 3.745v12a3.383 3.383 0 0 0 3.75 3.75h3.999c.412 0 .75-.338.75-.75a.745.745 0 0 0-.75-.745m2.751-14.25v-1.191l3.44 3.44h-1.19c-1.575 0-2.25-.674-2.25-2.25m-5.925 9.651c0 .413-.337.75-.75.75a.75.75 0 0 1-.75-.75.75.75 0 1 1 1.5 0m6.3 0c0 .413-.337.75-.75.75h-3.797a.75.75 0 0 1-.75-.75c0-.412.338-.75.75-.75h3.797a.75.75 0 0 1 .75.75m-6.3 2.194c0 .412-.337.75-.75.75a.75.75 0 0 1-.75-.75c0-.413.338-.75.75-.75.413 0 .75.337.75.75m4.627 0c0 .412-.338.75-.75.75h-2.124a.75.75 0 0 1-.75-.75c0-.413.338-.75.75-.75h2.124c.412 0 .75.337.75.75m9.82-3.127-.989-.989a1.6 1.6 0 0 0-1.158-.478c-.436 0-.853.174-1.158.483l-5.498 5.512a.75.75 0 0 0-.22.53v2.222c0 .413.337.75.75.75h2.222c.196 0 .389-.08.53-.22l5.516-5.49a1.64 1.64 0 0 0 .005-2.32m-2.151.028c.037 0 .075.014.098.043l.989.989q.042.042.042.098a.13.13 0 0 1-.042.098l-.637.633-1.186-1.186.632-.637a.3.3 0 0 1 .104-.038m-4.21 6.502h-1.162v-1.163l3.58-3.6 1.182 1.182z"></path><path fill="currentColor" d="M5.737 9.19a2.1 2.1 0 0 1-.417-1.257 2.05 2.05 0 0 1 1.486-1.978v-.108c0-.413.338-.75.75-.75.413 0 .75.337.75.75v.098c.816.22 1.416.919 1.5 1.763a.75.75 0 1 1-1.49.187q.001-.014-.005-.028a.54.54 0 0 0-.511-.501h-.473a.54.54 0 0 0-.516.557c0 .127.037.249.112.352a.5.5 0 0 0 .282.192l1.082.281a2.076 2.076 0 0 1 .938 3.441c-.253.263-.577.45-.933.544v.103c0 .412-.337.75-.75.75a.75.75 0 0 1-.75-.75v-.108a2.05 2.05 0 0 1-1.472-1.753.75.75 0 1 1 1.49-.187q-.002.013.006.028a.54.54 0 0 0 .51.501h.474a.5.5 0 0 0 .356-.155.58.58 0 0 0 .16-.398.55.55 0 0 0-.399-.544l-1.083-.281a2 2 0 0 1-1.097-.75"></path></svg>