<svg xmlns="http://www.w3.org/2000/svg" width="20px" height="20px"  fill="none" viewBox="0 0 24 24" focusable="false" aria-hidden="true"><path fill="currentColor" d="M12.01 10.75a4.25 4.25 0 1 1 0-8.5 4.25 4.25 0 0 1 0 8.5m0-7a2.75 2.75 0 1 0 0 5.5 2.75 2.75 0 0 0 0-5.5m3.99 18h-8c-2.42 0-3.753-1.325-3.753-3.731 0-2.662 1.506-5.769 5.75-5.769h4c4.244 0 5.75 3.107 5.75 5.769.003 2.406-1.33 3.731-3.747 3.731m-6-8a3.957 3.957 0 0 0-4.25 4.269c0 1.564.674 2.231 2.253 2.231h7.997c1.58 0 2.253-.667 2.253-2.231a3.96 3.96 0 0 0-4.253-4.269z"></path></svg>