<svg xmlns="http://www.w3.org/2000/svg" width="20px" height="20px"   fill="none" viewBox="0 0 24 24" focusable="false" aria-hidden="true"><path fill="currentColor" d="m21.477 9.085-7.413-6.1a3.26 3.26 0 0 0-4.128 0l-7.413 6.1a.75.75 0 1 0 .954 1.158l.773-.636v8.393a3.383 3.383 0 0 0 3.75 3.75h8a3.382 3.382 0 0 0 3.75-3.75v-8.393l.773.636a.75.75 0 0 0 .954-1.158m-7.727 11.165h-3.5v-3.75a1.75 1.75 0 0 1 3.5 0zm4.5-2.25c0 1.577-.673 2.25-2.25 2.25h-.75v-3.75a3.25 3.25 0 0 0-6.5 0v3.75h-.75c-1.577 0-2.25-.673-2.25-2.25v-9.626l5.139-4.226a1.755 1.755 0 0 1 2.222 0l5.139 4.226z"></path></svg>