<svg xmlns="http://www.w3.org/2000/svg" width="20px" height="20px"  fill="none" viewBox="0 0 24 24" focusable="false" aria-hidden="true"><path fill="currentColor" d="M12 21.749a2.24 2.24 0 0 1-1.591-.658l-2.019-2.019a.76.76 0 0 0-.982-.072l-1.358 1.021a1.75 1.75 0 0 1-2.8-1.4v-12.621a3.383 3.383 0 0 1 3.75-3.75h10a3.383 3.383 0 0 1 3.75 3.75v12.621a1.75 1.75 0 0 1-2.8 1.4l-1.359-1.021a.754.754 0 0 0-.981.07l-2.019 2.019a2.24 2.24 0 0 1-1.591.66m-4.144-4.393a2.25 2.25 0 0 1 1.594.655l2.02 2.019a.77.77 0 0 0 1.06 0l2.02-2.019a2.26 2.26 0 0 1 2.94-.209l1.361 1.019a.24.24 0 0 0 .261.024.24.24 0 0 0 .138-.224v-12.621c0-1.577-.673-2.25-2.25-2.25h-10c-1.577 0-2.25.673-2.25 2.25v12.621a.24.24 0 0 0 .138.224.24.24 0 0 0 .261-.024l1.36-1.021c.39-.29.862-.446 1.347-.444m8.894-8.356a.75.75 0 0 0-.75-.75h-5a.75.75 0 0 0 0 1.5h5a.75.75 0 0 0 .75-.75m0 4a.75.75 0 0 0-.75-.75h-5a.75.75 0 0 0 0 1.5h5a.75.75 0 0 0 .75-.75m-8.75-4.75a.75.75 0 1 0 0 1.5.75.75 0 0 0 0-1.5m0 4a.75.75 0 1 0 0 1.5.75.75 0 0 0 0-1.5"></path></svg>