<svg xmlns="http://www.w3.org/2000/svg" fill="none" width="20px" height="20px"  viewBox="0 0 24 24" focusable="false" aria-hidden="true"><path fill="currentColor" d="M12.508 2.01h-1.024a2.118 2.118 0 0 0-2.306 2.305v15.37a2.118 2.118 0 0 0 2.306 2.306h1.024a2.116 2.116 0 0 0 2.306-2.306v-15.37a2.117 2.117 0 0 0-2.306-2.306m.769 17.675c0 .604-.165.769-.769.769h-1.024c-.604 0-.769-.165-.769-.769v-15.37c0-.604.165-.769.769-.769h1.024c.604 0 .769.165.769.769zm6.404-12.552h-1.024a2.118 2.118 0 0 0-2.306 2.305v10.247a2.12 2.12 0 0 0 2.306 2.306h1.024a2.116 2.116 0 0 0 2.306-2.306v-10.247a2.116 2.116 0 0 0-2.306-2.305m.769 12.552c0 .604-.165.769-.769.769h-1.024c-.604 0-.769-.165-.769-.769v-10.247c0-.603.165-.768.769-.768h1.024c.604 0 .769.165.769.768zm-15.114-8.453h-1.025a2.117 2.117 0 0 0-2.306 2.305v6.148a2.118 2.118 0 0 0 2.306 2.306h1.025a2.116 2.116 0 0 0 2.305-2.306v-6.148a2.118 2.118 0 0 0-2.305-2.306m.768 8.453c0 .604-.165.769-.768.769h-1.025c-.604 0-.769-.165-.769-.769v-6.148c0-.604.165-.769.769-.769h1.025c.603 0 .768.165.768.77z"></path></svg>