<svg xmlns="http://www.w3.org/2000/svg" width="20px" height="20px" fill="none" viewBox="0 0 24 24" focusable="false" aria-hidden="true"><path fill="currentColor" d="M11.744 8a3.75 3.75 0 1 0 0 7.5 3.75 3.75 0 0 0 0-7.5m0 6a2.25 2.25 0 1 1 0-4.5 2.25 2.25 0 0 1 0 4.5m9.208-.3a2.256 2.256 0 0 1 0-3.908 1.085 1.085 0 0 0 .392-1.475l-1.669-2.886a1.083 1.083 0 0 0-1.476-.4 2.26 2.26 0 0 1-3.39-1.95 1.087 1.087 0 0 0-1.087-1.081h-3.956a1.09 1.09 0 0 0-1.087 1.086 2.26 2.26 0 0 1-3.389 1.95 1.084 1.084 0 0 0-1.477.394l-1.669 2.889a1.084 1.084 0 0 0 .4 1.479 2.254 2.254 0 0 1 0 3.906 1.08 1.08 0 0 0-.4 1.479l1.672 2.884a1.084 1.084 0 0 0 1.478.4 2.26 2.26 0 0 1 2.255 0l.01.006a2.25 2.25 0 0 1 1.12 1.946 1.087 1.087 0 0 0 1.085 1.086h3.96a1.087 1.087 0 0 0 1.085-1.085 2.26 2.26 0 0 1 3.39-1.951 1.083 1.083 0 0 0 1.477-.394l1.674-2.889a1.084 1.084 0 0 0-.398-1.483zm-2.377 3.274a3.758 3.758 0 0 0-5.244 3.023h-3.177a3.758 3.758 0 0 0-5.24-3.024l-1.277-2.2a3.755 3.755 0 0 0 0-6.047l1.277-2.2a3.76 3.76 0 0 0 5.242-3.026h3.175a3.76 3.76 0 0 0 5.244 3.023l1.276 2.2a3.755 3.755 0 0 0 0 6.046z"></path></svg>