<svg xmlns="http://www.w3.org/2000/svg" width="20px" height="20px"  fill="none" viewBox="0 0 24 24" focusable="false" aria-hidden="true"><path fill="currentColor" d="m20.591 6.619-7.255-4.02a2.74 2.74 0 0 0-2.671 0l-7.256 4.02a2.25 2.25 0 0 0-1.159 1.967v10.914a2.253 2.253 0 0 0 2.25 2.25h15a2.253 2.253 0 0 0 2.25-2.25v-10.914a2.25 2.25 0 0 0-1.159-1.967m-13.341 9.13h9.5v1.5h-9.5zm9.5-1.5h-9.5v-.75c0-.588.161-.75.75-.75h8c.589 0 .75.162.75.75zm-9.5 4.5h9.5v1.5h-9.5zm13 .75a.75.75 0 0 1-.75.75h-1.25v-6.75a2.067 2.067 0 0 0-2.25-2.25h-8a2.067 2.067 0 0 0-2.25 2.25v6.75h-1.25a.75.75 0 0 1-.75-.75v-10.913a.75.75 0 0 1 .386-.655l7.257-4.024a1.25 1.25 0 0 1 1.215 0l7.256 4.024a.75.75 0 0 1 .386.655zm-6-11.5a.75.75 0 0 1-.75.75h-3a.75.75 0 1 1 0-1.5h3a.75.75 0 0 1 .75.75"></path></svg>