<svg xmlns="http://www.w3.org/2000/svg" fill="none" viewBox="0 0 20 20" focusable="false" aria-hidden="true" width="20px" height="20px"  ><g fill="currentColor" stroke="currentColor" stroke-width="0.3" clip-path="url(#233__a)"><path d="M5.417 15.833h-1.667a.417.417 0 0 1 0-.833h1.667a.417.417 0 0 1 0 .833Z"></path><path d="M18.958 15.833h-1.041a.417.417 0 0 1 0-.833h.695l.562-2.993c-.007-1.532-1.316-2.84-2.924-2.84h-2.736l-1.326 5.833h2.395a.417.417 0 0 1 0 .833h-2.916a.417.417 0 0 1-.407-.508l1.515-6.667a.416.416 0 0 1 .407-.325h3.068a3.755 3.755 0 0 1 3.75 3.75l-.633 3.41a.416.416 0 0 1-.409.34Z"></path><path d="M16.25 17.5a2.086 2.086 0 0 1-2.083-2.083c0-1.15.935-2.084 2.083-2.084s2.083.934 2.083 2.084-.935 2.083-2.083 2.083Zm0-3.333c-.69 0-1.25.56-1.25 1.25 0 .689.56 1.25 1.25 1.25s1.25-.561 1.25-1.25c0-.69-.56-1.25-1.25-1.25Z"></path><path d="M7.083 17.5a2.086 2.086 0 0 1-2.083-2.083c0-1.15.935-2.084 2.083-2.084s2.084.934 2.084 2.084-.935 2.083-2.084 2.083Zm0-3.333c-.689 0-1.25.56-1.25 1.25 0 .689.561 1.25 1.25 1.25.69 0 1.25-.561 1.25-1.25 0-.69-.56-1.25-1.25-1.25Z"></path><path d="M5.417 8.333h-3.334a.417.417 0 0 1 0-.833h3.334a.417.417 0 0 1 0 .833Z"></path><path d="M5.417 10.833h-4.167a.417.417 0 0 1 0-.833h4.167a.417.417 0 0 1 0 .833Z"></path><path d="M5.417 13.333h-5a.417.417 0 0 1 0-.833h5a.417.417 0 0 1 0 .833Z"></path><path d="M11.667 15.833h-2.917a.417.417 0 0 1 0-.833h2.584l1.893-8.333h-9.477a.417.417 0 0 1 0-.834h10a.417.417 0 0 1 .407.509l-2.084 9.166a.42.42 0 0 1-.406.325Z"></path></g><defs><clipPath id="233__a"><path fill="currentColor" d="M0 0h20v20h-20z"></path></clipPath></defs></svg>