<svg xmlns="http://www.w3.org/2000/svg" width="20px" height="20px" fill="none" viewBox="0 0 24 24" focusable="false" aria-hidden="true"><path fill="currentColor" fill-rule="evenodd" d="M12 14a4 4 0 1 0 0-8 4 4 0 0 0 0 8m0-2a2 2 0 1 0 0-4 2 2 0 0 0 0 4" clip-rule="evenodd"></path><path fill="currentColor" fill-rule="evenodd" d="M17.926 20.056a9.99 9.99 0 0 0 4.074-8.056c0-5.523-4.477-10-10-10s-10 4.477-10 10a9.99 9.99 0 0 0 4.211 8.155q.674.48 1.425.845c1.319.64 2.8 1 4.364 1a9.96 9.96 0 0 0 5.926-1.944m-.697-2.001a8 8 0 1 0-10.457 0 6 6 0 0 1 5.228-3.055c2.243 0 4.2 1.231 5.229 3.055m-1.672 1.113a4 4 0 0 0-7.114 0 8 8 0 0 0 3.557.832c1.278 0 2.485-.3 3.557-.832" clip-rule="evenodd"></path></svg>